<svg id="Capa_1" enable-background="new 0 0 511.213 511.213" height="512"
    viewBox="0 0 511.213 511.213" width="512" xmlns="http://www.w3.org/2000/svg">
    <g>
        <path
            d="m255.606 264.16-72.085-72.085-21.213 21.213 93.298 93.299 126.376-126.376-21.213-21.213z" />
        <path
            d="m490 123.929 21.213-21.213-100-100-21.213 21.213 38.751 38.751-26.434 23.497c-41.172-34.22-92.507-52.855-146.711-52.855-55.214 0-107.452 19.335-149.002 54.785l-24.785-24.784 39.394-39.394-21.213-21.213-100 100 21.213 21.213 39.394-39.394 24.456 24.456c-38.427 42.366-59.456 96.733-59.456 154.331 0 61.435 23.924 119.193 67.365 162.635 2.437 2.437 4.926 4.803 7.451 7.116l-50.838 55.074 22.044 20.349 52.229-56.582c38.345 26.909 83.932 41.407 131.749 41.407s93.404-14.499 131.749-41.407l52.229 56.582 22.044-20.349-50.838-55.074c2.525-2.313 5.014-4.679 7.451-7.116 43.441-43.441 67.365-101.2 67.365-162.635 0-58.566-21.756-113.78-61.421-156.445l25.816-22.947zm-219.394 338.832v-27.9h-30v27.9c-98.348-7.327-177.112-86.091-184.439-184.439h29.439v-30h-29.439c7.327-98.348 86.091-177.112 184.439-184.439v25.978h30v-25.977c98.348 7.327 177.112 86.091 184.439 184.439h-29.439v30h29.439c-7.327 98.348-86.09 177.111-184.439 184.438z" />
    </g>
</svg>